<svg width="27" height="30" viewBox="0 0 27 30" fill="none" xmlns="http://www.w3.org/2000/svg">
<path d="M18.337 13.3902L18.2613 13.5796C19.5066 14.1251 22.2921 16.2902 22.2921 20.6445C22.2921 24.7443 18.8282 28.8818 13.3878 28.8818C6.61493 28.8818 4.28087 24.9304 4.28087 21.2978C4.28087 16.6446 7.53936 13.5425 7.53936 9.3043C7.53936 6.35323 5.30387 3.44008 2.3111 2.91049L2.19765 3.09992C3.44727 4.42375 3.86421 5.71049 3.86421 7.07266C3.86421 11.6503 0 14.9039 0 20.1626C0 25.006 3.39146 29.9369 13.1991 29.9369C21.9417 29.9369 26.5527 25.663 26.5527 21.1087C26.5526 17.2122 23.7484 13.91 18.337 13.3902Z" fill="url(#paint0_linear_200_299)"/>
<path d="M13.3114 23.4194L15.7741 0H10.6216L13.0843 23.4194H13.3114Z" fill="#0460A9"/>
<defs>
<linearGradient id="paint0_linear_200_299" x1="-7.02035e-05" y1="16.4236" x2="26.5526" y2="16.4236" gradientUnits="userSpaceOnUse">
<stop offset="0.3" stop-color="#E74A21"/>
<stop offset="0.7011" stop-color="#EC9A1E"/>
</linearGradient>
</defs>
</svg>
